<?xml version="1.0" encoding="utf-8"?>
<!-- Generator: Adobe Illustrator 16.0.0, SVG Export Plug-In . SVG Version: 6.00 Build 0)  -->
<!DOCTYPE svg PUBLIC "-//W3C//DTD SVG 1.1//EN" "http://www.w3.org/Graphics/SVG/1.1/DTD/svg11.dtd">
<svg version="1.1" id="Layer_1" xmlns:sketch="http://www.bohemiancoding.com/sketch/ns"
	 xmlns="http://www.w3.org/2000/svg" xmlns:xlink="http://www.w3.org/1999/xlink" x="0px" y="0px" width="694.104px"
	 height="384.01px" viewBox="0 0 694.104 384.01" enable-background="new 0 0 694.104 384.01" xml:space="preserve">
<title>IPAD 2</title>
<desc>Created with Sketch.</desc>
<g id="Page-1" sketch:type="MSPage">
	<g id="Laptop" transform="translate(1.000000, 1.000000)" sketch:type="MSLayerGroup">
		<path id="bezel_1_" sketch:type="MSShapeGroup" fill="#FEFEFE" stroke="#8492A5" stroke-width="2" d="M594,0H98
			C84.504,0,73,11.074,73,24.79v326.237h546V24.79C619,11.073,607.537,0,594,0z"/>
		<circle id="webcam" sketch:type="MSShapeGroup" fill="none" stroke="#8492A5" stroke-width="2" cx="347" cy="19" r="4">
		</circle>
		<g id="bottom" transform="translate(0.000000, 351.000000)" sketch:type="MSShapeGroup">
			<path id="Shape" fill="#FDFDFD" stroke="#8492A5" stroke-width="2" d="M640.813,31.01H51.288C20.641,31.01,0,20.494,0,16.021
				V2.428C0,1.084,1.335,0,2.995,0h686.108c1.662,0,3,1.084,3,2.428v14.129C692.096,20.092,676.112,31.01,640.813,31.01z"/>
			<path id="Line" fill="none" stroke="#8492A5" stroke-linecap="square" d="M0.5,14.5h689.742"/>
		</g>
		
			<rect id="screen_1_" x="95" y="39" sketch:type="MSShapeGroup" fill="#FFFFFF" stroke="#8492A5" width="501.074" height="292.009">
		</rect>
		<path id="touchpad" sketch:type="MSShapeGroup" fill="#FFFFFF" stroke="#8492A5" d="M421,352v3.087
			c0,2.201-4.333,2.866-7.613,2.866H278.815c-3.451,0-7.815-0.664-7.815-2.866V352"/>
	</g>
</g>
</svg>
